<svg width="20" height="20" viewBox="0 0 20 20" fill="none" xmlns="http://www.w3.org/2000/svg">
<g clip-path="url(#clip0)">
<path d="M18.7979 8.59619C18.7161 8.58291 18.6332 8.57678 18.5504 8.57785H4.44077L4.74844 8.43476C5.04917 8.29242 5.32275 8.0987 5.55694 7.86236L9.51363 3.90567C10.0347 3.40823 10.1223 2.60799 9.72112 2.00961C9.25422 1.37197 8.35882 1.23353 7.72114 1.70043C7.66962 1.73817 7.62066 1.77931 7.57464 1.82359L0.419694 8.97853C-0.139465 9.53707 -0.139957 10.4431 0.418576 11.0023C0.418933 11.0026 0.419336 11.003 0.419694 11.0034L7.57464 18.1583C8.13425 18.7164 9.04029 18.7151 9.59837 18.1555C9.64229 18.1115 9.68329 18.0646 9.72112 18.0152C10.1223 17.4169 10.0347 16.6166 9.51363 16.1192L5.5641 12.1553C5.35415 11.9452 5.11276 11.7689 4.84861 11.633L4.41931 11.4398H18.4716C19.2026 11.467 19.844 10.9563 19.9813 10.2378C20.1078 9.45769 19.578 8.72274 18.7979 8.59619Z" fill="white"/>
</g>
<defs>
<clipPath id="clip0">
<rect width="20" height="20" fill="white"/>
</clipPath>
</defs>
</svg>
