<svg width="50" height="50" viewBox="0 0 50 50" fill="none" xmlns="http://www.w3.org/2000/svg">
<path d="M47.8408 23.7445V23.7446L39.5306 11.6568C38.7886 10.5776 37.6151 9.89001 36.3109 9.77038C35.0059 9.65036 33.7277 10.1132 32.8019 11.0391L27.4798 16.3612L29.5514 18.4328L34.8734 13.1107C35.296 12.6882 35.7874 12.6643 36.0432 12.6879C36.2986 12.7113 36.7777 12.8242 37.1164 13.3167L44.2856 23.7447H26.4648V25.4132L26.6484 26.6744H23.3516L23.5352 25.4132V23.7446H5.71436L12.8836 13.3167C13.2223 12.8242 13.7014 12.7113 13.9568 12.6879C14.2124 12.6643 14.7039 12.6882 15.1266 13.1108L20.4486 18.4329L22.5202 16.3613L17.1981 11.0392C16.2723 10.1132 14.993 9.65085 13.6891 9.77048C12.385 9.8902 11.2114 10.5778 10.4694 11.657L2.15918 23.7446H0V26.6743H2.14883L3.19824 33.9674C3.44902 35.7109 4.32031 37.3063 5.65166 38.4597C6.98301 39.6132 8.68623 40.2484 10.4477 40.2484H15.0405C16.802 40.2484 18.5053 39.6132 19.8365 38.4597C21.1678 37.3063 22.0392 35.7109 22.2896 33.9697L22.9251 29.6039H27.0747L27.7099 33.9673C27.9606 35.7108 28.8319 37.3062 30.1633 38.4596C31.4946 39.6131 33.1979 40.2483 34.9593 40.2483H39.5522C41.3136 40.2483 43.0169 39.6131 44.3481 38.4596C45.6794 37.3062 46.5508 35.7108 46.8016 33.9673L47.851 26.6742H50V23.7445H47.8408ZM8.46602 36.8397C7.2335 36.2105 6.31982 35.0153 6.10303 33.5802L13.0091 26.6742H18.6315L8.46602 36.8397ZM32.9134 36.8065C31.7048 36.1642 30.8145 34.9727 30.6095 33.5477L30.6019 33.4956L37.4232 26.6743H43.0457L32.9134 36.8065Z" fill="white"/>
</svg>
