<svg width="26" height="26" viewBox="0 0 26 26" fill="none" xmlns="http://www.w3.org/2000/svg">
<path d="M6.0759 5.27181L16.4409 2.44261L15.892 1.33312C15.5328 0.611957 14.6569 0.314147 13.9358 0.673271L4.65692 5.27181H6.0759Z" fill="white"/>
<path d="M19.6584 2.52429C19.53 2.52429 19.4015 2.54181 19.273 2.57685L16.838 3.24254L9.40147 5.27175H17.8423H21.5212L21.0657 3.60167C20.8905 2.95057 20.3007 2.52429 19.6584 2.52429Z" fill="white"/>
<path d="M23.0423 6.2937H22.7095H22.2569H21.8044H18.3504H5.65839H3.99416H2.5927H2.33285H1.46277C1.00146 6.2937 0.589781 6.50684 0.321168 6.84261C0.19854 6.99735 0.105109 7.17545 0.0525547 7.37107C0.020438 7.4937 0 7.62217 0 7.75356V7.92874V9.59297V24.0192C0 24.8251 0.654015 25.4791 1.45985 25.4791H23.0394C23.8453 25.4791 24.4993 24.8251 24.4993 24.0192V19.9463H15.8365C14.4672 19.9463 13.3547 18.8338 13.3547 17.4645V16.1273V15.6747V15.2222V14.2178C13.3547 13.5463 13.6233 12.9361 14.0584 12.4894C14.4438 12.0922 14.9606 11.8236 15.5387 11.7565C15.635 11.7448 15.7343 11.739 15.8336 11.739H23.2847H23.7372H24.1898H24.4993V7.75356C24.5022 6.94772 23.8482 6.2937 23.0423 6.2937Z" fill="white"/>
<path d="M25.5241 13.1346C25.3781 13.0003 25.2058 12.8982 25.0131 12.831C24.8642 12.7814 24.7066 12.7522 24.5401 12.7522H24.5022H24.473H24.0204H22.3883H15.8365C15.0306 12.7522 14.3766 13.4062 14.3766 14.2121V14.939V15.3916V15.8441V17.4617C14.3766 18.2675 15.0306 18.9215 15.8365 18.9215H24.5022H24.5401C24.7066 18.9215 24.8642 18.8923 25.0131 18.8427C25.2058 18.7784 25.3781 18.6733 25.5241 18.539C25.8161 18.2733 26 17.8879 26 17.4617V14.2121C26 13.7857 25.8161 13.4003 25.5241 13.1346ZM18.8847 16.1274C18.8847 16.5303 18.5576 16.8573 18.1547 16.8573H17.6701C17.2671 16.8573 16.9401 16.5303 16.9401 16.1274V15.6427C16.9401 15.4091 17.0482 15.2018 17.2204 15.0704C17.346 14.974 17.5007 14.9128 17.6701 14.9128H17.7927H18.1547C18.5576 14.9128 18.8847 15.2397 18.8847 15.6427V16.1274Z" fill="white"/>
</svg>
