<svg width="50" height="50" viewBox="0 0 50 50" fill="none" xmlns="http://www.w3.org/2000/svg">
<g clip-path="url(#clip0)">
<path d="M49.1603 22.352L26.7269 1.91085C25.7422 1.01349 24.2574 1.01359 23.2731 1.91075L0.839651 22.3521C0.0508831 23.0709 -0.209663 24.1783 0.175688 25.1733C0.561136 26.1683 1.49961 26.8112 2.5667 26.8112H6.1497V47.2917C6.1497 48.1037 6.8081 48.7621 7.62011 48.7621H19.9164C20.7284 48.7621 21.3868 48.1038 21.3868 47.2917V34.8566H28.6135V47.2918C28.6135 48.1038 29.2719 48.7622 30.0839 48.7622H42.3796C43.1916 48.7622 43.85 48.1039 43.85 47.2918V26.8112H47.4337C48.5007 26.8112 49.4393 26.1682 49.8247 25.1733C50.2096 24.1782 49.949 23.0709 49.1603 22.352Z" fill="white"/>
<path d="M43.4659 4.17285H33.5911L44.9364 14.4888V5.64316C44.9364 4.83115 44.2781 4.17285 43.4659 4.17285Z" fill="white"/>
</g>
<defs>
<clipPath id="clip0">
<rect width="50" height="50" fill="white"/>
</clipPath>
</defs>
</svg>
