<svg width="50" height="50" viewBox="0 0 50 50" fill="none" xmlns="http://www.w3.org/2000/svg">
<g clip-path="url(#clip0)">
<path d="M39.3744 2.63921C38.1305 1.46844 36.5385 0.90625 34.9341 0.90625C33.1279 0.90625 31.3039 1.61835 29.944 2.98009L29.3604 3.5637L28.7768 2.97831C27.4168 1.61835 25.5928 0.90625 23.7867 0.90625C22.1822 0.90625 20.5903 1.46844 19.3463 2.63921C16.6104 5.21456 16.5622 9.52287 19.2 12.1607L29.3604 22.3211L39.5208 12.1607C42.1586 9.52287 42.1104 5.21456 39.3744 2.63921Z" fill="white"/>
<path d="M49.3475 27.495C47.7859 26.4367 45.9458 26.7365 44.3164 27.6771C42.6869 28.6176 33.3314 36.6167 33.3314 36.6167L24.1223 36.6185C23.6939 36.6185 23.2299 36.1366 23.2299 35.7101C23.2299 35.2086 23.6672 34.8177 24.1223 34.8177H29.7566C31.7287 34.8177 33.9364 33.5327 33.9364 31.2483C33.9364 28.8211 31.7287 27.6788 29.7566 27.6788C26.3353 27.6788 25.6696 27.6931 25.6696 27.6931C24.299 27.6931 22.9087 27.611 21.8378 27.0381C20.4101 26.3064 18.7645 25.8923 17.0084 25.8923C14.06 25.8923 11.4204 27.0685 9.61071 28.9228L0 38.3854L10.7083 49.0937L14.2778 45.5242H32.3516C34.1506 45.5242 35.8871 44.8639 37.231 43.6699L49.4689 29.9419C50.2166 29.2779 50.1738 28.0572 49.3475 27.495Z" fill="white"/>
</g>
<defs>
<clipPath id="clip0">
<rect width="50" height="50" fill="white"/>
</clipPath>
</defs>
</svg>
