<svg width="50" height="50" viewBox="0 0 50 50" fill="none" xmlns="http://www.w3.org/2000/svg">
<g clip-path="url(#clip0)">
<path d="M11.4374 49.7514H25.0001H38.5628V47.9431H11.4374V49.7514Z" fill="white"/>
<path d="M39.7371 4.0825C39.2853 3.73459 38.7713 3.47569 38.2227 3.31963L32.8896 1.79557C32.7417 1.75324 32.607 1.67393 32.4984 1.56514L31.1818 0.248657C29.2773 1.26252 27.1574 1.80486 25 1.83008C22.8427 1.80486 20.7228 1.26252 18.8182 0.248657L17.5017 1.56514C17.393 1.67402 17.2584 1.75334 17.1105 1.79566L11.7774 3.31963C11.2288 3.47569 10.7149 3.73459 10.263 4.0825L0 11.9774L6.21711 21.3044L7.94539 19.9216L3.45162 13.1818C3.18055 12.7665 3.29457 12.2103 3.70726 11.9352C4.11995 11.6601 4.67712 11.7688 4.9562 12.1787L9.36264 18.7875L9.96808 18.3031C10.2395 18.086 10.6115 18.0437 10.9249 18.1944C11.2383 18.345 11.4375 18.6619 11.4375 19.0095V46.1349H38.5628V19.0094C38.5628 18.6617 38.762 18.3449 39.0754 18.1943C39.3887 18.0436 39.7607 18.086 40.0322 18.303L40.6377 18.7874L45.044 12.1786C45.3221 11.7658 45.8813 11.6554 46.2955 11.9315C46.7097 12.2076 46.8227 12.7663 46.5487 13.1817L42.0549 19.9215L43.7832 21.3043L50.0003 11.9773L39.7371 4.0825Z" fill="white"/>
</g>
<defs>
<clipPath id="clip0">
<rect width="50" height="50" fill="white"/>
</clipPath>
</defs>
</svg>
