<svg width="50" height="50" viewBox="0 0 50 50" fill="none" xmlns="http://www.w3.org/2000/svg">
<path d="M49.72 36.0278C49.3521 35.1447 48.6501 34.4428 47.7671 34.0748V21.4086C47.9359 21.1559 48.0499 20.8708 48.1019 20.5716C48.0979 20.003 47.7743 19.4851 47.2649 19.2324L24.6107 9.07707C24.2581 8.90684 23.8472 8.90684 23.4947 9.07707L0.840464 19.2324C0.299916 19.4493 -0.0383633 19.9907 0.00348567 20.5716C0.00860781 21.1472 0.396364 21.649 0.952062 21.7992L8.70807 24.4775V34.5212C8.70807 34.9603 8.9148 35.3738 9.26605 35.6372C9.6367 35.9098 10.1212 35.973 10.5494 35.8046C19.2415 32.5677 28.8081 32.5677 37.5001 35.8046L38.0023 35.9162C38.2857 35.9082 38.5592 35.8106 38.7835 35.6372C39.1713 35.4002 39.4047 34.9757 39.3973 34.5212V24.4217L44.9771 22.5803V34.0748C43.1282 34.8452 42.2538 36.9687 43.0242 38.8177C43.7946 40.6667 45.9181 41.5411 47.7671 40.7707C49.6161 40.0002 50.4904 37.8768 49.72 36.0278Z" fill="white"/>
</svg>
