<svg width="50" height="50" viewBox="0 0 50 50" fill="none" xmlns="http://www.w3.org/2000/svg">
<path d="M1.12495 44.4861H48.8699C49.4913 44.4861 49.9949 43.9825 49.9949 43.3612V42.3486C49.9956 42.3317 50 42.3161 50 42.2989C50 42.1153 49.9559 41.942 49.8778 41.789L44.9956 29.499V6.6385C44.9956 6.01714 44.4921 5.51355 43.8707 5.51355H6.12441C5.50306 5.51355 4.99946 6.01714 4.99946 6.6385V29.499L0.0793216 41.8837C0.0572878 41.939 0.0418642 41.9956 0.0288887 42.0526C0.0257061 42.0671 0.0232579 42.0815 0.0205648 42.0962C0.00832387 42.1618 0.000734459 42.2282 0.000489639 42.2945C0.000489639 42.296 0 42.2975 0 42.2989V43.3612C0 43.9825 0.503594 44.4861 1.12495 44.4861ZM20.1592 40.8557L21.1884 37.6731H28.8065L29.8357 40.8557H20.1592ZM8.30673 8.38357H41.6884V27.9691H8.30673V8.38357Z" fill="white"/>
</svg>
