<svg width="50" height="50" viewBox="0 0 50 50" fill="none" xmlns="http://www.w3.org/2000/svg">
<path d="M2.04651 29.1592V44.7898C2.04651 47.6638 4.38485 49.9999 7.25668 49.9999H44.7702C47.6441 49.9999 49.9803 47.6637 49.9803 44.7898V29.1592H2.04651Z" fill="white"/>
<path d="M24.6921 4.76501L16.8934 6.61568L23.427 16.2296L31.8738 14.3081L24.6921 4.76501Z" fill="white"/>
<path d="M14.7261 7.13049L6.32092 9.12281L12.7857 18.6471L21.245 16.7235L14.7261 7.13049Z" fill="white"/>
<path d="M49.9471 9.09364L48.1735 2.36623C47.7651 0.730188 46.0895 -0.299284 44.4367 0.0779028L37.4342 1.741L44.0783 11.5362L49.1697 10.3775C49.4468 10.315 49.6844 10.142 49.8304 9.90028C49.9763 9.65859 50.0179 9.36874 49.9471 9.09364Z" fill="white"/>
<path d="M35.2648 2.25586L26.9055 4.23987L34.0997 13.8038L41.8963 12.0302L35.2648 2.25586Z" fill="white"/>
<path d="M12.5482 18.7408L9.21375 27.0751H17.3896L20.7241 18.7408H12.5482Z" fill="white"/>
<path d="M22.9686 18.7408L19.6342 27.0751H27.8099L31.1445 18.7408H22.9686Z" fill="white"/>
<path d="M48.9385 18.7408H43.8096L40.4751 27.0772H49.9806V19.7828C49.9805 19.2056 49.5158 18.7408 48.9385 18.7408Z" fill="white"/>
<path d="M33.389 18.7408L30.0544 27.0751H38.2283L41.5648 18.7408H33.389Z" fill="white"/>
<path d="M4.15353 9.63965L2.45497 10.0418C1.62762 10.2294 0.92737 10.7316 0.483461 11.4528C0.0395512 12.176 -0.0917459 13.0263 0.114578 13.8495L2.04652 21.4855V27.075H6.96909L10.0973 19.2577L10.6058 19.1431L4.15353 9.63965Z" fill="white"/>
</svg>
