<svg width="50" height="50" viewBox="0 0 50 50" fill="none" xmlns="http://www.w3.org/2000/svg">
<path d="M39.7461 50H10.2539C4.60049 50 0 45.3995 0 39.7461C0 38.9364 0.655176 38.2812 1.46484 38.2812H48.5352C49.3448 38.2812 50 38.9364 50 39.7461C50 45.3995 45.3995 50 39.7461 50Z" fill="white"/>
<path d="M25 0C11.2686 0 0 8.54297 0 19.043C0 19.8526 0.655176 20.5078 1.46484 20.5078H48.5352C49.3448 20.5078 50 19.8526 50 19.043C50 8.54297 38.7314 0 25 0ZM14.2192 11.2896L11.2896 14.2192C10.7174 14.7914 9.79043 14.7915 9.21816 14.2192C8.646 13.6471 8.646 12.72 9.21816 12.1479L12.1479 9.21816C12.72 8.646 13.6471 8.646 14.2192 9.21816C14.7914 9.79033 14.7915 10.7174 14.2192 11.2896ZM23.106 11.2896L20.1763 14.2192C19.6041 14.7914 18.6771 14.7915 18.1049 14.2192C17.5327 13.6471 17.5327 12.72 18.1049 12.1479L21.0346 9.21816C21.6067 8.646 22.5338 8.646 23.106 9.21816C23.6781 9.79033 23.6782 10.7174 23.106 11.2896ZM31.895 11.2896L28.9653 14.2192C28.3932 14.7914 27.4662 14.7915 26.8939 14.2192C26.3218 13.6471 26.3218 12.72 26.8939 12.1479L29.8236 9.21816C30.3958 8.646 31.3229 8.646 31.895 9.21816C32.4672 9.79033 32.4673 10.7174 31.895 11.2896ZM39.9679 11.2896L37.0382 14.2192C36.466 14.7914 35.5391 14.7915 34.9668 14.2192C34.3946 13.6471 34.3946 12.72 34.9668 12.1479L37.8965 9.21816C38.4687 8.646 39.3957 8.646 39.9679 9.21816C40.54 9.79033 40.54 10.7174 39.9679 11.2896Z" fill="white"/>
<path d="M1.46484 26.4648C2.16797 26.4648 2.7832 26.5526 3.31055 26.6991C3.10381 27.3651 3.0459 27.5643 2.92969 29.6288C2.54883 29.4823 2.08018 29.3945 1.46484 29.3945C0.644434 29.3945 0 28.7499 0 27.9297C0 27.1093 0.644434 26.4648 1.46484 26.4648Z" fill="white"/>
<path d="M50 27.9297C50 28.7499 49.3556 29.3945 48.5352 29.3945C47.9198 29.3945 47.4512 29.4823 47.0703 29.6288C47.0387 29.0665 47.0984 28.0167 46.6895 26.6991C47.2168 26.5526 47.832 26.4648 48.5352 26.4648C49.3556 26.4648 50 27.1093 50 27.9297Z" fill="white"/>
<path d="M3.31055 26.6991C4.62891 27.0215 5.50781 27.666 6.24023 28.2226C7.14844 28.8964 7.82217 29.3945 9.28701 29.3945C10.7519 29.3945 11.3965 28.8964 12.3047 28.2225C13.3594 27.4314 14.7461 26.4648 17.1777 26.4648C19.6386 26.4648 20.9276 27.4315 21.9823 28.2225C22.8907 28.8964 23.5352 29.3945 25 29.3945C26.4648 29.3945 27.1093 28.8964 28.0177 28.2225C29.0724 27.4314 30.3614 26.4648 32.8223 26.4648C35.254 26.4648 36.6407 27.4315 37.6953 28.2225C38.6035 28.8963 39.2481 29.3945 40.713 29.3945C42.1778 29.3945 42.8516 28.8964 43.7598 28.2225C44.4922 27.6659 45.3711 27.0215 46.6895 26.699C46.3805 25.5478 45.8656 24.4862 45.2035 23.535H4.79648C4.13437 24.4862 3.61953 25.5478 3.31055 26.6991Z" fill="white"/>
<path d="M45.2239 35.2539C46.3475 33.6503 47.0261 31.7151 47.0703 29.6288C46.4844 29.8339 46.045 30.1854 45.5175 30.5663C44.4628 31.3574 43.1737 32.3242 40.7129 32.3242C38.2812 32.3242 36.9922 31.3573 35.9375 30.5663C35.0293 29.8925 34.287 29.3945 32.8221 29.3945C31.3573 29.3945 30.6836 29.8925 29.7754 30.5663C28.7501 31.3574 27.4316 32.3242 25 32.3242C22.5683 32.3242 21.2499 31.3573 20.2246 30.5663C19.3164 29.8925 18.6427 29.3945 17.1778 29.3945C15.713 29.3945 14.9707 29.8925 14.0625 30.5663C13.0078 31.3573 11.7187 32.3242 9.28699 32.3242C6.82615 32.3242 5.53709 31.3573 4.4824 30.5663C3.95486 30.1854 3.5155 29.8339 2.92957 29.6288C2.97371 31.7152 3.65232 33.6503 4.77595 35.2539H45.2239Z" fill="white"/>
</svg>
