<svg width="50" height="50" viewBox="0 0 50 50" fill="none" xmlns="http://www.w3.org/2000/svg">
<g clip-path="url(#clip0)">
<path d="M46.7392 9.73882H43.0996C43.5797 8.97906 43.8965 8.12623 43.9868 7.22427C44.2754 4.34175 42.7573 1.75777 40.1729 0.612164C37.7973 -0.440863 35.1276 -0.0103947 33.2053 1.73316L28.6096 5.8982C27.7146 4.91929 26.4279 4.30406 25 4.30406C23.5695 4.30406 22.2809 4.92125 21.3856 5.90318L16.7841 1.73267C14.8586 -0.0108829 12.19 -0.439692 9.81553 0.61275C7.23174 1.75845 5.71338 4.34332 6.00283 7.22574C6.09336 8.12701 6.40996 8.97945 6.88994 9.73882H3.26084C1.45986 9.73882 0 11.1988 0 12.9997V17.891C0 18.7914 0.72998 19.5214 1.63047 19.5214H48.3696C49.27 19.5214 50.0001 18.7915 50.0001 17.891V12.9997C50 11.1988 48.5401 9.73882 46.7392 9.73882ZM20.1087 9.19537V9.73882H12.4385C10.4119 9.73882 8.81699 7.84957 9.32314 5.73961C9.54609 4.81041 10.2168 4.01832 11.0843 3.61734C12.2755 3.06675 13.595 3.24351 14.5955 4.14908L20.1101 9.14732C20.1098 9.16343 20.1087 9.17925 20.1087 9.19537ZM40.7514 6.79136C40.6299 8.48599 39.0991 9.73902 37.4002 9.73902H29.8913V9.19556C29.8913 9.17632 29.8901 9.15728 29.8899 9.13804C31.1392 8.00562 33.8492 5.54937 35.319 4.21705C36.1544 3.45992 37.3232 3.1065 38.4037 3.42877C39.9542 3.89127 40.8647 5.20982 40.7514 6.79136Z" fill="white"/>
<path d="M3.26086 22.7823V46.6954C3.26086 48.4964 4.72073 49.9563 6.5217 49.9563H21.7391V22.7823H3.26086Z" fill="white"/>
<path d="M28.2609 22.7823V49.9563H43.4782C45.2792 49.9563 46.7391 48.4964 46.7391 46.6954V22.7823H28.2609Z" fill="white"/>
</g>
<defs>
<clipPath id="clip0">
<rect width="50" height="50" fill="white"/>
</clipPath>
</defs>
</svg>
