<svg width="50" height="50" viewBox="0 0 50 50" fill="none" xmlns="http://www.w3.org/2000/svg">
<g clip-path="url(#clip0)">
<path d="M45.5293 14.2972C38.9252 3.44708 28.9767 10.9957 28.9767 10.9957C28.3314 11.4833 27.1417 11.8842 26.3333 11.8861L23.6686 11.8879C22.8602 11.8889 21.6705 11.488 21.0262 11.0003C21.0262 11.0003 11.0768 3.44988 4.47175 14.3C-2.13139 25.1464 0.529633 36.9588 0.529633 36.9588C0.995825 39.8511 2.53239 41.7811 5.43211 41.5387C8.32343 41.2972 14.5993 33.7495 14.5993 33.7495C15.1177 33.1276 16.2039 32.6195 17.0104 32.6195L32.9859 32.6167C33.7934 32.6167 34.8786 33.1248 35.3961 33.7467C35.3961 33.7467 41.6729 41.2944 44.5689 41.5359C47.4649 41.7783 49.0052 39.8464 49.4686 36.956C49.4677 36.956 52.1333 25.1455 45.5293 14.2972ZM18.9964 23.1288H15.5708V26.4303C15.5708 26.4303 14.8455 26.9842 13.7229 26.9702C12.6021 26.9534 12.0949 26.366 12.0949 26.366V23.1297H8.85955C8.85955 23.1297 8.45583 22.7157 8.34767 21.6258C8.24138 20.5358 8.79428 19.6547 8.79428 19.6547H12.2208V16.2291C12.2208 16.2291 12.9257 15.8515 13.9392 15.8804C14.9536 15.9121 15.6967 16.2935 15.6967 16.2935L15.6827 19.6538H18.9181C18.9181 19.6538 19.4831 20.3792 19.5297 21.2556C19.5764 22.133 18.9964 23.1288 18.9964 23.1288ZM34.709 26.8919C33.2087 26.8919 31.9994 25.6788 31.9994 24.1805C31.9994 22.6794 33.2087 21.4691 34.709 21.4691C36.2026 21.4691 37.4213 22.6794 37.4213 24.1805C37.4213 25.6798 36.2026 26.8919 34.709 26.8919ZM34.709 19.4319C33.2087 19.4319 31.9994 18.2198 31.9994 16.7214C31.9994 15.2203 33.2087 14.0101 34.709 14.0101C36.2026 14.0101 37.4213 15.2203 37.4213 16.7214C37.4213 18.2207 36.2026 19.4319 34.709 19.4319ZM41.4613 23.4365C39.9611 23.4365 38.7518 22.2244 38.7518 20.7251C38.7518 19.2249 39.9611 18.0137 41.4613 18.0137C42.9549 18.0137 44.1736 19.2249 44.1736 20.7251C44.1736 22.2244 42.9549 23.4365 41.4613 23.4365Z" fill="white"/>
</g>
<defs>
<clipPath id="clip0">
<rect width="50" height="50" fill="white"/>
</clipPath>
</defs>
</svg>
