<svg width="50" height="50" viewBox="0 0 50 50" fill="none" xmlns="http://www.w3.org/2000/svg">
<path d="M24.9858 6.59105C14.0873 -2.94123 0.230047 5.4341 0.00281777 16.7882C-0.055088 19.6818 0.7802 22.5005 2.44287 25.099H13.2198L15.1366 21.9041C15.6932 20.9766 17.0402 20.9467 17.6283 21.8714L21.6727 28.2267L27.568 15.7813C28.0821 14.6953 29.6143 14.6608 30.1814 15.7139L35.2349 25.099H47.5287C56.6356 10.8657 38.6373 -5.34896 24.9858 6.59105Z" fill="white"/>
<path d="M33.0704 27.2582L28.9754 19.6532L23.1848 31.8779C22.6921 32.9179 21.2431 33.0082 20.6253 32.0372L16.4293 25.4437L15.3051 27.3174C15.0404 27.7585 14.5637 28.0284 14.0491 28.0284H4.76001C5.0512 28.3332 3.49927 26.7844 23.9527 47.1319C24.5239 47.7003 25.4474 47.7004 26.0187 47.1319C46.1574 27.0975 44.9208 28.3326 45.2114 28.0284H34.3601C33.8212 28.0285 33.3259 27.7327 33.0704 27.2582Z" fill="white"/>
</svg>
