<svg width="30" height="30" viewBox="0 0 30 30" fill="none" xmlns="http://www.w3.org/2000/svg">
<g clip-path="url(#clip0)">
<path d="M29.1906 13.0486C29.1899 13.0479 29.1893 13.0472 29.1886 13.0465L16.951 0.809326C16.4293 0.287476 15.7358 0 14.9981 0C14.2604 0 13.5669 0.287247 13.0451 0.809097L0.813873 13.0401C0.809754 13.0442 0.805634 13.0486 0.801514 13.0527C-0.269653 14.13 -0.267822 15.878 0.806778 16.9526C1.29773 17.4438 1.94615 17.7283 2.63943 17.758C2.66759 17.7608 2.69597 17.7621 2.72458 17.7621H3.21233V26.768C3.21233 28.55 4.66229 30 6.44482 30H11.2326C11.7178 30 12.1115 29.6066 12.1115 29.1211V22.0605C12.1115 21.2473 12.7729 20.5859 13.5862 20.5859H16.4101C17.2233 20.5859 17.8848 21.2473 17.8848 22.0605V29.1211C17.8848 29.6066 18.2782 30 18.7637 30H23.5514C25.334 30 26.7839 28.55 26.7839 26.768V17.7621H27.2362C27.9737 17.7621 28.6672 17.4749 29.1893 16.953C30.265 15.8766 30.2655 14.1257 29.1906 13.0486Z" fill="#462B93"/>
</g>
<defs>
<clipPath id="clip0">
<rect width="30" height="30" fill="white"/>
</clipPath>
</defs>
</svg>
