<svg width="30" height="30" viewBox="0 0 30 30" fill="none" xmlns="http://www.w3.org/2000/svg">
<path d="M26.7857 0H3.21428C1.43908 0 0 1.43908 0 3.21428V26.7857C0 28.5609 1.43908 30 3.21428 30H26.7857C28.5609 30 30 28.5609 30 26.7857V3.21428C30 1.43908 28.5609 0 26.7857 0ZM9.64285 23.5714H6.42857C5.83681 23.5714 5.35712 23.0917 5.35712 22.5C5.35712 21.9082 5.83681 21.4285 6.42857 21.4285H9.64285C10.2346 21.4285 10.7143 21.9082 10.7143 22.5C10.7143 23.0917 10.2346 23.5714 9.64285 23.5714ZM9.64285 16.0714H6.42857C5.83681 16.0714 5.35712 15.5917 5.35712 15C5.35712 14.4082 5.83681 13.9285 6.42857 13.9285H9.64285C10.2346 13.9285 10.7143 14.4082 10.7143 15C10.7143 15.5917 10.2346 16.0714 9.64285 16.0714ZM9.64285 8.5714H6.42857C5.83681 8.5714 5.35712 8.09171 5.35712 7.49995C5.35712 6.9082 5.83681 6.42857 6.42857 6.42857H9.64285C10.2346 6.42857 10.7143 6.90826 10.7143 7.50002C10.7143 8.09177 10.2346 8.5714 9.64285 8.5714ZM23.5714 23.5714H13.9286C13.3368 23.5714 12.8571 23.0917 12.8571 22.5C12.8571 21.9082 13.3368 21.4285 13.9286 21.4285H23.5714C24.1632 21.4285 24.6429 21.9082 24.6429 22.5C24.6429 23.0917 24.1631 23.5714 23.5714 23.5714ZM23.5714 16.0714H13.9286C13.3368 16.0714 12.8571 15.5917 12.8571 15C12.8571 14.4082 13.3368 13.9285 13.9286 13.9285H23.5714C24.1632 13.9285 24.6429 14.4082 24.6429 15C24.6429 15.5917 24.1631 16.0714 23.5714 16.0714ZM23.5714 8.5714H13.9286C13.3368 8.5714 12.8571 8.09171 12.8571 7.49995C12.8571 6.9082 13.3368 6.4285 13.9286 6.4285H23.5714C24.1632 6.4285 24.6429 6.9082 24.6429 7.49995C24.6429 8.09171 24.1631 8.5714 23.5714 8.5714Z" fill="#462B93"/>
</svg>
