<svg width="22" height="22" viewBox="0 0 22 22" fill="none" xmlns="http://www.w3.org/2000/svg">
<path d="M10.0328 12.9109C9.95295 12.7972 9.90158 12.5853 9.88401 12.2744C9.68013 12.3535 9.47343 12.4321 9.26955 12.5075C9.26955 12.905 9.33407 13.1976 9.46753 13.3817C9.70803 13.7249 10.1648 13.7872 10.8395 13.5606C10.8395 13.7857 10.8395 14.0094 10.8395 14.2353C10.948 14.1905 11.0602 14.1473 11.1687 14.1025C11.1687 13.8774 11.1687 13.6537 11.1687 13.4286C11.5889 13.2138 11.9079 12.9938 12.1316 12.765C12.5327 12.35 12.7329 11.8396 12.7329 11.2222C12.7329 10.7961 12.5767 10.5314 12.2628 10.434C12.0693 10.3753 11.7041 10.3761 11.168 10.4413C11.168 9.87676 11.168 9.3128 11.168 8.74885C11.4878 8.63296 11.7209 8.66307 11.866 8.84053C11.9444 8.93663 11.9921 9.07009 12.0091 9.23944C12.2107 9.16029 12.4146 9.0825 12.6163 9.00705C12.6031 8.6192 12.4762 8.35006 12.2284 8.20628C11.9835 8.06188 11.6301 8.06471 11.1681 8.2166C11.1681 8.06483 11.1681 7.91379 11.1681 7.76202C11.0596 7.80602 10.9474 7.85001 10.8389 7.89401C10.8389 8.04799 10.8389 8.20198 10.8389 8.35596C10.3732 8.54657 10.011 8.83254 9.75288 9.21461C9.49555 9.59669 9.36712 9.96106 9.36712 10.313C9.36712 10.7068 9.48744 10.97 9.72646 11.1013C9.96475 11.2325 10.3365 11.2457 10.8404 11.1386C10.8404 11.7699 10.8404 12.4013 10.8404 13.0319C10.4464 13.1573 10.178 13.1168 10.0328 12.9109ZM11.1686 11.0923C11.4568 11.0549 11.6629 11.0571 11.7875 11.096C11.9994 11.1627 12.1073 11.3416 12.1073 11.6306C12.1073 11.8132 12.067 11.9906 11.9899 12.16C11.8381 12.4892 11.566 12.7422 11.1686 12.919C11.1686 12.3103 11.1686 11.7016 11.1686 11.0923ZM10.2205 10.4829C10.0672 10.4132 9.99093 10.2636 9.99093 10.0341C9.99093 9.84419 10.0562 9.63663 10.1867 9.41222C10.3172 9.18708 10.5357 9.00889 10.8407 8.87469C10.8407 9.41874 10.8407 9.96291 10.8407 10.5077C10.5784 10.5614 10.3737 10.5518 10.2205 10.4829ZM2.63101 18.0468C2.63101 18.2089 2.6127 18.3599 2.58554 18.5043C8.19448 20.1996 13.8055 14.0166 19.4174 15.7134C19.3903 15.5521 19.3705 15.3901 19.3705 15.2287C19.3705 13.8076 20.5393 12.8683 21.9787 14.0115C21.9876 14.0189 21.9934 14.0261 22 14.032C22 12.011 22 9.99019 22 7.96922C21.9926 7.96332 21.9854 7.95963 21.9787 7.95386C20.5393 6.81071 19.3705 5.41453 19.3705 3.95382C19.3705 3.79247 19.3903 3.64143 19.4174 3.49629C13.8063 1.79939 8.19522 7.98163 2.58554 6.28633C2.6127 6.44768 2.63101 6.61039 2.63101 6.77101C2.63101 8.19215 1.46291 9.13215 0.0212604 7.98827C0.0138869 7.98163 0.0066362 7.97438 0 7.96848C0 9.98945 0 12.0103 0 14.0313C0.00884827 14.0372 0.0146242 14.0401 0.0212604 14.0459C1.46365 15.1921 2.63101 16.5883 2.63101 18.0468ZM11 7.00783C13.2057 6.07581 14.995 7.38548 14.995 9.61537C14.995 11.7968 13.2065 14.0635 11 14.9955C8.79506 15.9268 7.00722 14.6171 7.00722 12.3872C7.00648 10.2057 8.79506 7.93911 11 7.00783Z" fill="white"/>
</svg>
