<svg width="26" height="26" viewBox="0 0 26 26" fill="none" xmlns="http://www.w3.org/2000/svg">
<g clip-path="url(#clip0)">
<path d="M15.6113 11.375C15.4852 11.375 15.3787 11.4675 15.3604 11.5922C15.2874 12.0888 15.1646 12.5731 15.0002 12.9979C14.6644 13.8653 14.1555 14.5194 13.4877 14.9421C12.9757 15.2662 12.3856 15.4375 11.7812 15.4375C10.6547 15.4375 9.4772 14.8125 8.72645 14.3218C8.65667 14.2762 8.56898 14.2673 8.49224 14.2999C8.3038 14.38 8.10935 14.4459 7.9108 14.4969C7.79812 14.5259 7.7188 14.6264 7.7188 14.7428V21.6836C7.7188 21.8238 7.8325 21.9375 7.9727 21.9375H23.6641C24.9542 21.9375 26.0001 20.8917 26.0001 19.6016V11.6289C26.0001 11.4887 25.8864 11.375 25.7461 11.375H15.6113Z" fill="white"/>
<path d="M7.91075 6.62807C8.10921 6.67911 8.30355 6.74492 8.49189 6.82495C8.56883 6.85765 8.65673 6.84872 8.72671 6.80296C9.47751 6.31231 10.6549 5.68755 11.7812 5.68755C12.3856 5.68755 12.9757 5.85884 13.4878 6.18292C14.1555 6.60563 14.6645 7.25974 15.0003 8.12719C15.1647 8.55192 15.2875 9.03622 15.3604 9.53281C15.3787 9.65748 15.4853 9.75 15.6113 9.75H25.7461C25.8863 9.75 26 9.6363 26 9.4961V6.39844C26 5.10834 24.9542 4.0625 23.6641 4.0625H7.97266C7.83245 4.0625 7.71875 4.1762 7.71875 4.31641V6.38219C7.71875 6.49858 7.79807 6.59913 7.91075 6.62807Z" fill="white"/>
<path d="M6.09373 6.38219V4.31641C6.09373 4.1762 5.98003 4.0625 5.83982 4.0625H5.17967C4.1971 4.0625 3.35449 4.67238 3.01004 5.53343C2.95468 5.67181 3.02806 5.82862 3.17071 5.87184C3.90358 6.0939 4.58812 6.47776 5.08552 6.80276C5.15565 6.84861 5.2438 6.85755 5.32094 6.8248C5.50919 6.74482 5.70342 6.679 5.90178 6.62802C6.01441 6.59907 6.09373 6.49853 6.09373 6.38219Z" fill="white"/>
<path d="M5.90175 14.4971C5.70324 14.4461 5.5089 14.3803 5.32055 14.3002C5.24367 14.2675 5.15582 14.2764 5.08589 14.3221C4.55721 14.6675 3.81697 15.0794 3.032 15.2929C2.92109 15.3231 2.84375 15.4229 2.84375 15.5379V19.6017C2.84375 20.8918 3.88959 21.9376 5.17969 21.9376H5.83984C5.98005 21.9376 6.09375 21.8239 6.09375 21.6837V14.743C6.09375 14.6266 6.01443 14.5261 5.90175 14.4971Z" fill="white"/>
<path d="M13.4849 8.71386C13.0128 7.49455 12.2149 7.3125 11.7812 7.3125C10.8737 7.3125 9.69043 8.10255 9.34934 8.34468C9.12778 8.502 8.89363 8.68476 8.67389 8.88682C8.22946 8.41816 7.60165 8.125 6.90625 8.125C6.21085 8.125 5.58304 8.41816 5.13855 8.88682C4.91882 8.68476 4.68472 8.502 4.46311 8.34468C4.12207 8.10255 2.93876 7.3125 2.03125 7.3125C1.59763 7.3125 0.799703 7.49455 0.327641 8.71386C0.122484 9.24371 0 9.93479 0 10.5625C0 11.1902 0.122484 11.8813 0.327641 12.4111C0.799703 13.6304 1.59763 13.8125 2.03125 13.8125C2.93876 13.8125 4.12207 13.0224 4.46316 12.7803C4.68472 12.623 4.91888 12.4402 5.13861 12.2382C5.58304 12.7068 6.21085 13 6.90625 13C7.60165 13 8.22946 12.7068 8.67395 12.2382C8.89368 12.4402 9.12778 12.623 9.34939 12.7803C9.69043 13.0224 10.8737 13.8125 11.7812 13.8125C12.2149 13.8125 13.0128 13.6304 13.4849 12.4111C13.69 11.8813 13.8125 11.1902 13.8125 10.5625C13.8125 9.93479 13.69 9.24371 13.4849 8.71386Z" fill="white"/>
</g>
<defs>
<clipPath id="clip0">
<rect width="26" height="26" fill="white"/>
</clipPath>
</defs>
</svg>
