<svg width="50" height="50" viewBox="0 0 50 50" fill="none" xmlns="http://www.w3.org/2000/svg">
<path d="M32.1068 40.9572H46.0769L44.8033 10.3934H38.0372V16.0709H35.1076V10.3934H25.2003V16.0709H22.2707V10.3934H15.5047L15.1318 19.3302H32.1068V40.9572Z" fill="white"/>
<path d="M29.1772 49.9999V22.2598H23.2581V27.6018C23.2581 31.4045 20.1644 34.4982 16.3618 34.4982C12.5591 34.4982 9.46531 31.4045 9.46531 27.6018V22.2598H3.54639V49.9947L29.1772 49.9999Z" fill="white"/>
<path d="M16.3616 31.5687C18.5489 31.5687 20.3283 29.7892 20.3283 27.602V22.2599H12.3948V27.602C12.3949 29.7891 14.1743 31.5687 16.3616 31.5687Z" fill="white"/>
<path d="M32.1068 50H46.4537L46.199 43.8868H32.1068V50Z" fill="white"/>
<path d="M25.2003 7.88324C25.2003 5.15185 27.4225 2.92963 30.1539 2.92963C32.8853 2.92963 35.1075 5.15175 35.1075 7.88324V10.3885H38.0371V7.88324C38.0372 3.53636 34.5008 0 30.1539 0C25.807 0 22.2706 3.53636 22.2706 7.88324V10.3885H25.2003V7.88324Z" fill="white"/>
</svg>
