<svg width="50" height="50" viewBox="0 0 50 50" fill="none" xmlns="http://www.w3.org/2000/svg">
<g clip-path="url(#clip0)">
<path d="M33.4358 26.4993C31.1859 22.9893 27.354 20.8936 23.1853 20.8936C19.0166 20.8936 15.1848 22.9893 12.9352 26.4993L7.51378 34.9568C6.61428 36.3599 6.19924 37.9811 6.3133 39.6439C6.42736 41.3071 7.06021 42.8559 8.14321 44.1239C9.22696 45.3908 10.659 46.2567 12.2844 46.6283C13.9099 46.9998 15.5761 46.8411 17.1028 46.1701L17.205 46.1247C21.0464 44.4699 25.436 44.4852 29.2675 46.1701C30.2559 46.6046 31.303 46.8243 32.3597 46.8243C32.9342 46.8243 33.5121 46.7591 34.0847 46.6286C35.7101 46.2575 37.1422 45.3915 38.2263 44.1243C39.3097 42.8574 39.9429 41.3083 40.0573 39.6447C40.1718 37.9811 39.7567 36.3602 38.8572 34.9564L33.4358 26.4993Z" fill="white"/>
<path d="M8.97412 26.4881C10.587 25.8686 11.8123 24.569 12.4241 22.8283C13.0066 21.172 12.9589 19.302 12.2895 17.5625C11.6196 15.8241 10.4012 14.4051 8.85853 13.5662C7.23805 12.6854 5.45773 12.542 3.84754 13.1626C0.608104 14.4081 -0.878484 18.4113 0.534098 22.0883C1.66249 25.0149 4.29425 26.8624 6.955 26.8624C7.63439 26.8624 8.3157 26.7418 8.97412 26.4881Z" fill="white"/>
<path d="M19.4935 19.862C23.5431 19.862 26.8379 16.1083 26.8379 11.4944C26.8379 6.87943 23.5431 3.125 19.4935 3.125C15.4442 3.125 12.1498 6.87943 12.1498 11.4944C12.1498 16.1083 15.4442 19.862 19.4935 19.862Z" fill="white"/>
<path d="M32.1773 21.9178H32.1777C32.8006 22.1245 33.4361 22.2233 34.069 22.2233C37.0223 22.2233 39.9005 20.0737 40.9988 16.7702C41.6312 14.8686 41.5897 12.8578 40.8817 11.1088C40.1408 9.27775 38.7679 7.94871 37.0155 7.36621C35.2626 6.7837 33.3671 7.0267 31.6776 8.0498C30.0636 9.02713 28.8268 10.6129 28.1951 12.5145C26.8619 16.5261 28.6483 20.7444 32.1773 21.9178Z" fill="white"/>
<path d="M47.644 20.9412L47.6429 20.94C44.8501 18.877 40.6734 19.7712 38.3316 22.9343C35.992 26.099 36.3579 30.3535 39.1464 32.418C40.1634 33.1714 41.365 33.5315 42.5949 33.5315C44.7384 33.5315 46.9684 32.4375 48.4592 30.4256C50.7984 27.261 50.4329 23.0064 47.644 20.9412Z" fill="white"/>
</g>
<defs>
<clipPath id="clip0">
<rect width="50" height="50" fill="white"/>
</clipPath>
</defs>
</svg>
