<svg width="50" height="50" viewBox="0 0 50 50" fill="none" xmlns="http://www.w3.org/2000/svg">
<g clip-path="url(#clip0)">
<path d="M20.8548 19.3075L18.2937 27.1898L24.9987 32.0613L31.7038 27.1898L29.1427 19.3075H20.8548Z" fill="white"/>
<path d="M46.5502 37.6879C48.3753 34.5998 49.5098 31.1522 49.8718 27.5377L44.5243 31.4043L46.5502 37.6879Z" fill="white"/>
<path d="M31.8341 18.101L34.593 26.592L42.5497 29.2136L49.9719 23.8468C49.769 19.3479 48.38 15.0647 45.956 11.3574L36.7789 11.3418L31.8341 18.101Z" fill="white"/>
<path d="M23.5325 34.6206L16.3105 29.3735L8.34172 31.9544L5.50818 40.6584C6.07256 41.3582 6.67624 42.0328 7.32106 42.6777C9.86293 45.2195 12.8563 47.1454 16.1197 48.3831L23.5325 42.9974V34.6206Z" fill="white"/>
<path d="M14.9981 2.0741C12.1698 3.30872 9.5688 5.07449 7.32104 7.32224C6.98069 7.66259 6.65266 8.01193 6.33459 8.36802L12.9414 8.37555L14.9981 2.0741Z" fill="white"/>
<path d="M0.118408 27.467C0.470292 31.0834 1.59573 34.5338 3.41145 37.6264L5.45511 31.3491L0.118408 27.467Z" fill="white"/>
<path d="M20.5393 16.3751H29.4632L34.4102 9.61287L31.5854 0.87316C29.4652 0.297928 27.255 0 24.9987 0C22.7668 0 20.5799 0.292063 18.4804 0.855174L15.6301 9.58843L20.5393 16.3751Z" fill="white"/>
<path d="M15.4073 26.5838L18.1652 18.0959L13.2553 11.3083L4.08045 11.2979C1.64522 14.9992 0.243751 19.2785 0.0283203 23.7753L7.43762 29.1649L15.4073 26.5838Z" fill="white"/>
<path d="M33.6799 29.3787L26.465 34.6207V42.9974L33.8777 48.3832C37.1411 47.1456 40.1346 45.2197 42.6764 42.6778C43.3042 42.0501 43.8932 41.3941 44.4448 40.7141L41.6353 31.9999L33.6799 29.3787Z" fill="white"/>
<path d="M43.7098 8.42119C43.3771 8.04663 43.0336 7.6795 42.6764 7.32234C40.4458 5.09179 37.8676 3.3353 35.0645 2.10205L37.1032 8.40995L43.7098 8.42119Z" fill="white"/>
<path d="M19.6653 49.4317C21.3982 49.8063 23.1834 50.0001 24.9987 50.0001C26.8139 50.0001 28.5991 49.8064 30.3321 49.4317L24.9987 45.5568L19.6653 49.4317Z" fill="white"/>
</g>
<defs>
<clipPath id="clip0">
<rect width="50" height="50" fill="white"/>
</clipPath>
</defs>
</svg>
