<svg width="20" height="20" viewBox="0 0 20 20" fill="none" xmlns="http://www.w3.org/2000/svg">
<path d="M17.7083 0H2.29167C1.0275 0 0 1.0275 0 2.29167V11.0417C0 12.3058 1.0275 13.3333 2.29167 13.3333H8.9825C9.71417 10.695 12.1317 8.75 15 8.75C17.0458 8.75 18.8592 9.7425 20 11.2658V2.29167C20 1.0275 18.9725 0 17.7083 0ZM5.20833 3.75H3.125C2.78 3.75 2.5 3.47 2.5 3.125C2.5 2.78 2.78 2.5 3.125 2.5H5.20833C5.55333 2.5 5.83333 2.78 5.83333 3.125C5.83333 3.47 5.55333 3.75 5.20833 3.75ZM10 9.16667C8.62167 9.16667 7.5 8.045 7.5 6.66667C7.5 5.28833 8.62167 4.16667 10 4.16667C11.3783 4.16667 12.5 5.28833 12.5 6.66667C12.5 8.045 11.3783 9.16667 10 9.16667Z" fill="white"/>
<path d="M15 10C12.2433 10 10 12.2433 10 15C10 17.7567 12.2433 20 15 20C17.7567 20 20 17.7567 20 15C20 12.2433 17.7567 10 15 10ZM17.2917 15.8333H15.8333V17.2917C15.8333 17.7517 15.46 18.125 15 18.125C14.54 18.125 14.1667 17.7517 14.1667 17.2917V15.8333H12.7083C12.2483 15.8333 11.875 15.46 11.875 15C11.875 14.54 12.2483 14.1667 12.7083 14.1667H14.1667V12.7083C14.1667 12.2483 14.54 11.875 15 11.875C15.46 11.875 15.8333 12.2483 15.8333 12.7083V14.1667H17.2917C17.7517 14.1667 18.125 14.54 18.125 15C18.125 15.46 17.7517 15.8333 17.2917 15.8333Z" fill="white"/>
</svg>
