<svg width="51" height="50" viewBox="0 0 51 50" fill="none" xmlns="http://www.w3.org/2000/svg">
<g clip-path="url(#clip0)">
<path d="M49.7145 18.2568C49.4699 17.9585 49.1051 17.7844 48.7223 17.7844H43.8559C42.655 14.617 41.0905 11.5136 39.3122 10.3421C33.1605 6.29514 16.8433 6.29514 10.6916 10.3421C8.91199 11.5148 7.3539 14.6221 6.14659 17.7844H1.28025C0.89361 17.7844 0.530011 17.9585 0.288038 18.2568C0.0447854 18.5538 -0.0525158 18.9469 0.0268615 19.3245L0.747658 22.8171C0.870565 23.4125 1.39548 23.8375 2.00105 23.8375H3.44264C2.05098 25.443 1.37628 27.4646 1.36731 29.4874C1.35835 31.9865 2.30704 34.2449 4.04182 35.8427C4.06102 35.8593 4.08022 35.8709 4.09815 35.8875V40.7743C4.09815 41.8331 4.95849 42.6947 6.01857 42.6947H10.5072C11.5673 42.6947 12.4276 41.8331 12.4276 40.7743V38.8104H37.5736V40.7743C37.5736 41.8331 38.4339 42.6947 39.494 42.6947H43.9827C45.0402 42.6947 45.9031 41.8331 45.9031 40.7743V35.9835C47.7441 34.2974 48.6237 31.9775 48.6352 29.6615C48.6429 27.5695 47.9374 25.4737 46.4638 23.835H48.0015C48.6096 23.835 49.1345 23.4099 49.2549 22.8133L49.9769 19.322C50.0512 18.9469 49.9577 18.5564 49.7145 18.2568ZM12.8002 13.5492C17.7037 10.3216 32.2976 10.3216 37.1985 13.5492C38.151 14.174 39.3762 16.7 40.499 19.7931H9.5022C10.6224 16.7012 11.8477 14.1765 12.8002 13.5492ZM7.05687 29.9688C7.05687 27.8819 8.7494 26.192 10.835 26.192C12.9231 26.192 14.6131 27.8819 14.6131 29.9688C14.6131 32.0556 12.9231 33.7469 10.835 33.7469C8.7494 33.7469 7.05687 32.0556 7.05687 29.9688ZM39.2162 33.7469C37.1306 33.7469 35.4381 32.0556 35.4381 29.9688C35.4381 27.8819 37.1306 26.192 39.2162 26.192C41.3043 26.192 42.9943 27.8819 42.9943 29.9688C42.9943 32.0556 41.3018 33.7469 39.2162 33.7469Z" fill="white"/>
</g>
<defs>
<clipPath id="clip0">
<rect width="50.0013" height="50" fill="white"/>
</clipPath>
</defs>
</svg>
