<svg width="180" height="172" viewBox="0 0 180 172" fill="none" xmlns="http://www.w3.org/2000/svg">
<g clip-path="url(#clip0)">
<path d="M108.948 9.61443L15.1698 29.7358L42.9711 159.307L136.749 139.185L108.948 9.61443Z" fill="#E0E0E0"/>
<g opacity="0.5">
<path opacity="0.5" d="M107.834 12.1451L17.2255 31.5865L44.087 156.778L134.696 137.336L107.834 12.1451Z" fill="url(#paint0_linear)"/>
</g>
<path d="M106.878 13.3141L18.5756 32.2606L44.8436 154.686L133.146 135.739L106.878 13.3141Z" fill="#FAFAFA"/>
<path d="M83.6064 12.7556L39.8009 22.1547L42.0777 32.766L85.8832 23.3669L83.6064 12.7556Z" fill="url(#paint1_linear)"/>
<path d="M59.4785 7.09105C56.0965 7.81749 53.9567 11.2127 54.7007 14.6737C55.4447 18.1347 58.7872 20.3558 62.1626 19.6293C65.5381 18.9029 67.6845 15.5077 66.9405 12.0467C66.1965 8.58563 62.8605 6.3646 59.4785 7.09105ZM61.6008 16.9891C60.886 17.1596 60.1367 17.1134 59.4482 16.8564C58.7598 16.5993 58.1635 16.1432 57.7353 15.546C57.3071 14.9489 57.0664 14.2377 57.0439 13.5032C57.0214 12.7688 57.218 12.0442 57.6088 11.4219C57.9996 10.7996 58.5668 10.3078 59.2382 10.0091C59.9096 9.71036 60.6547 9.61831 61.3786 9.74465C62.1025 9.87099 62.7723 10.21 63.3028 10.7185C63.8333 11.2269 64.2004 11.8818 64.3573 12.5997C64.4657 13.069 64.4803 13.555 64.4003 14.03C64.3204 14.5049 64.1473 14.9594 63.8912 15.3672C63.635 15.7751 63.3008 16.1283 62.9078 16.4067C62.5147 16.685 62.0706 16.8829 61.6008 16.9891Z" fill="url(#paint2_linear)"/>
<path d="M83.0471 12.3995L40.1643 21.6006L42.3407 31.7441L85.2235 22.543L83.0471 12.3995Z" fill="#462B93"/>
<path d="M59.4784 7.09104C58.2931 7.34545 57.2098 7.94563 56.3656 8.81569C55.5214 9.68575 54.9541 10.7866 54.7355 11.9791C54.5169 13.1715 54.6568 14.402 55.1375 15.515C55.6182 16.6279 56.4182 17.5733 57.4362 18.2316C58.4542 18.8899 59.6446 19.2316 60.8567 19.2134C62.0689 19.1952 63.2485 18.818 64.2463 18.1294C65.2441 17.4409 66.0153 16.4719 66.4624 15.345C66.9095 14.2182 67.0125 12.984 66.7582 11.7987C66.5893 11.0115 66.2671 10.2654 65.8099 9.60279C65.3526 8.9402 64.7694 8.37418 64.0934 7.93703C63.4174 7.49988 62.6619 7.20017 61.87 7.05501C61.0782 6.90986 60.2655 6.9221 59.4784 7.09104ZM61.5063 16.5502C60.8221 16.697 60.1098 16.6376 59.4594 16.3795C58.8089 16.1215 58.2496 15.6763 57.8522 15.1004C57.4548 14.5244 57.2371 13.8436 57.2266 13.1439C57.2162 12.4442 57.4134 11.7572 57.7935 11.1696C58.1735 10.5821 58.7193 10.1204 59.3617 9.84304C60.0041 9.56566 60.7144 9.48502 61.4026 9.61131C62.0909 9.73761 62.7262 10.0652 63.2283 10.5526C63.7304 11.04 64.0767 11.6653 64.2233 12.3495C64.42 13.2669 64.2442 14.2247 63.7347 15.0125C63.2251 15.8002 62.4236 16.3533 61.5063 16.5502Z" fill="#462B93"/>
<path d="M152.511 25.6582H56.599V158.178H152.511V25.6582Z" fill="#E0E0E0"/>
<g opacity="0.5">
<path opacity="0.5" d="M150.892 27.899H58.2208V155.94H150.892V27.899Z" fill="url(#paint3_linear)"/>
</g>
<path d="M149.711 28.8427H59.3994V154.054H149.711V28.8427Z" fill="white"/>
<path d="M127.075 23.413H82.2725V34.2658H127.075V23.413Z" fill="url(#paint4_linear)"/>
<path d="M104.674 12.8192C101.215 12.8192 98.41 15.6899 98.41 19.2321C98.41 22.7743 101.215 25.645 104.674 25.645C108.133 25.645 110.937 22.7743 110.937 19.2321C110.937 15.6899 108.133 12.8192 104.674 12.8192ZM104.674 22.9324C103.938 22.9498 103.215 22.7477 102.595 22.3519C101.975 21.956 101.487 21.3844 101.193 20.71C100.9 20.0356 100.814 19.289 100.946 18.5655C101.079 17.8421 101.424 17.1746 101.938 16.6483C102.452 16.122 103.111 15.7607 103.831 15.6107C104.551 15.4607 105.3 15.5286 105.981 15.8059C106.662 16.0832 107.245 16.5573 107.656 17.1675C108.067 17.7778 108.286 18.4966 108.286 19.2321C108.293 20.1988 107.917 21.129 107.24 21.8191C106.563 22.5093 105.64 22.9032 104.674 22.9148V22.9324Z" fill="url(#paint5_linear)"/>
<path d="M126.603 22.9477H82.7444V33.322H126.603V22.9477Z" fill="#462B93"/>
<path d="M104.674 12.8192C103.461 12.8192 102.276 13.1787 101.268 13.8523C100.26 14.5258 99.4744 15.4831 99.0104 16.6032C98.5465 17.7233 98.4251 18.9558 98.6616 20.1448C98.8981 21.3339 99.4819 22.4261 100.339 23.2834C101.196 24.1406 102.289 24.7245 103.478 24.961C104.667 25.1975 105.899 25.0761 107.019 24.6122C108.139 24.1482 109.097 23.3625 109.77 22.3545C110.444 21.3465 110.803 20.1613 110.803 18.949C110.803 17.3233 110.158 15.7641 109.008 14.6146C107.858 13.465 106.299 12.8192 104.674 12.8192ZM104.674 22.4868C103.974 22.486 103.291 22.2779 102.71 21.8891C102.129 21.5002 101.676 20.9479 101.409 20.3018C101.142 19.6558 101.072 18.9451 101.208 18.2593C101.344 17.5736 101.681 16.9436 102.175 16.4489C102.669 15.9542 103.298 15.617 103.984 15.4799C104.67 15.3427 105.38 15.4118 106.027 15.6783C106.673 15.9449 107.226 16.397 107.616 16.9775C108.005 17.5581 108.214 18.241 108.216 18.9402C108.216 19.405 108.124 19.8651 107.946 20.2944C107.767 20.7237 107.506 21.1136 107.177 21.442C106.848 21.7703 106.458 22.0306 106.028 22.208C105.599 22.3854 105.138 22.4764 104.674 22.4758V22.4868Z" fill="#462B93"/>
<g opacity="0.5">
<path opacity="0.5" d="M4.1764 161.76H3.3512V166.441H4.1764V161.76Z" fill="#47E6B1"/>
<path opacity="0.5" d="M6.10559 164.514V163.689H1.42432V164.514H6.10559Z" fill="#47E6B1"/>
</g>
<g opacity="0.5">
<path opacity="0.5" d="M99.9135 0H99.0883V4.68128H99.9135V0Z" fill="#47E6B1"/>
<path opacity="0.5" d="M101.843 2.75214V1.92694L97.1614 1.92694V2.75214L101.843 2.75214Z" fill="#47E6B1"/>
</g>
<path opacity="0.5" d="M169.228 169.553C169.001 169.454 168.818 169.275 168.714 169.049C168.61 168.824 168.592 168.568 168.664 168.331C168.676 168.294 168.683 168.257 168.686 168.219C168.693 168.11 168.664 168.002 168.605 167.911C168.545 167.82 168.458 167.75 168.356 167.713C168.254 167.675 168.142 167.671 168.037 167.702C167.933 167.733 167.841 167.796 167.776 167.883C167.753 167.914 167.734 167.947 167.719 167.982C167.619 168.209 167.44 168.393 167.215 168.497C166.989 168.601 166.734 168.618 166.496 168.546C166.46 168.534 166.422 168.527 166.384 168.524C166.275 168.517 166.168 168.546 166.076 168.606C165.985 168.665 165.916 168.752 165.878 168.855C165.84 168.957 165.837 169.068 165.867 169.173C165.898 169.277 165.961 169.369 166.048 169.435C166.079 169.458 166.112 169.477 166.147 169.492C166.375 169.591 166.558 169.77 166.662 169.996C166.766 170.221 166.783 170.477 166.711 170.714C166.699 170.751 166.692 170.788 166.689 170.826C166.683 170.935 166.711 171.043 166.771 171.134C166.83 171.225 166.918 171.295 167.02 171.332C167.122 171.37 167.234 171.374 167.338 171.343C167.443 171.312 167.534 171.249 167.6 171.162C167.623 171.131 167.642 171.098 167.657 171.063C167.756 170.836 167.935 170.652 168.161 170.548C168.386 170.444 168.642 170.427 168.879 170.499C168.916 170.511 168.953 170.518 168.991 170.521C169.1 170.528 169.208 170.499 169.299 170.439C169.39 170.38 169.46 170.293 169.498 170.19C169.535 170.088 169.539 169.977 169.508 169.872C169.478 169.768 169.414 169.676 169.327 169.61C169.297 169.587 169.264 169.568 169.228 169.553Z" fill="#4D8AF0"/>
<path opacity="0.5" d="M29.9948 124.549C29.7672 124.45 29.584 124.27 29.48 124.045C29.376 123.82 29.3585 123.564 29.4308 123.326C29.4425 123.29 29.4498 123.253 29.4527 123.214C29.4593 123.106 29.4307 122.998 29.3711 122.907C29.3115 122.816 29.2242 122.746 29.122 122.708C29.0199 122.671 28.9083 122.667 28.8038 122.698C28.6993 122.728 28.6075 122.792 28.5419 122.879C28.5191 122.909 28.5 122.942 28.4849 122.977C28.3858 123.205 28.2065 123.388 27.9811 123.492C27.7557 123.596 27.4999 123.614 27.2624 123.541C27.2261 123.53 27.1885 123.522 27.1505 123.52C27.0418 123.513 26.9339 123.542 26.8427 123.601C26.7516 123.661 26.682 123.748 26.6443 123.85C26.6067 123.952 26.6029 124.064 26.6336 124.168C26.6643 124.273 26.7278 124.365 26.8147 124.43C26.8453 124.453 26.8784 124.472 26.9135 124.487C27.1411 124.586 27.3243 124.766 27.4283 124.991C27.5323 125.217 27.5498 125.472 27.4775 125.71C27.4658 125.746 27.4585 125.784 27.4556 125.822C27.449 125.931 27.4776 126.038 27.5372 126.13C27.5967 126.221 27.6841 126.29 27.7863 126.328C27.8884 126.366 28 126.369 28.1045 126.339C28.209 126.308 28.3008 126.245 28.3664 126.158C28.3892 126.127 28.4083 126.094 28.4234 126.059C28.5225 125.831 28.7018 125.648 28.9272 125.544C29.1526 125.44 29.4084 125.422 29.6459 125.495C29.6822 125.506 29.7198 125.514 29.7578 125.517C29.8665 125.523 29.9744 125.495 30.0656 125.435C30.1567 125.376 30.2263 125.288 30.264 125.186C30.3016 125.084 30.3054 124.972 30.2747 124.868C30.244 124.763 30.1805 124.671 30.0936 124.606C30.063 124.583 30.0299 124.564 29.9948 124.549Z" fill="#FDD835"/>
<path opacity="0.5" d="M145.965 14.9634C145.737 14.8643 145.554 14.685 145.45 14.4596C145.346 14.2342 145.328 13.9784 145.401 13.741C145.412 13.7046 145.42 13.6671 145.422 13.629C145.429 13.5203 145.4 13.4124 145.341 13.3213C145.281 13.2301 145.194 13.1605 145.092 13.1229C144.99 13.0852 144.878 13.0814 144.774 13.1121C144.669 13.1428 144.577 13.2063 144.512 13.2932C144.489 13.3238 144.47 13.357 144.455 13.392C144.356 13.6196 144.176 13.8029 143.951 13.9069C143.725 14.0109 143.47 14.0284 143.232 13.956C143.196 13.9444 143.158 13.937 143.12 13.9341C143.012 13.9275 142.904 13.9562 142.812 14.0157C142.721 14.0753 142.652 14.1626 142.614 14.2648C142.576 14.3669 142.573 14.4785 142.603 14.583C142.634 14.6875 142.698 14.7793 142.784 14.8449C142.815 14.8677 142.848 14.8869 142.883 14.902C143.111 15.001 143.294 15.1803 143.398 15.4057C143.502 15.6312 143.52 15.8869 143.447 16.1244C143.436 16.1607 143.428 16.1983 143.425 16.2363C143.419 16.345 143.447 16.4529 143.507 16.5441C143.566 16.6353 143.654 16.7048 143.756 16.7425C143.858 16.7802 143.97 16.7839 144.074 16.7533C144.179 16.7226 144.271 16.6591 144.336 16.5721C144.359 16.5415 144.378 16.5084 144.393 16.4734C144.492 16.2457 144.672 16.0625 144.897 15.9585C145.122 15.8545 145.378 15.837 145.616 15.9093C145.652 15.921 145.689 15.9284 145.728 15.9313C145.836 15.9378 145.944 15.9092 146.035 15.8496C146.126 15.7901 146.196 15.7028 146.234 15.6006C146.271 15.4984 146.275 15.3868 146.244 15.2823C146.214 15.1779 146.15 15.086 146.063 15.0205C146.033 14.9976 146 14.9785 145.965 14.9634Z" fill="#FDD835"/>
<path opacity="0.5" d="M178.35 70.6691C179.262 70.6691 180.002 69.9292 180.002 69.0165C180.002 68.1038 179.262 67.3639 178.35 67.3639C177.437 67.3639 176.697 68.1038 176.697 69.0165C176.697 69.9292 177.437 70.6691 178.35 70.6691Z" fill="#F55F44"/>
<path opacity="0.5" d="M50.6382 165.519C51.5509 165.519 52.2908 164.78 52.2908 163.867C52.2908 162.954 51.5509 162.214 50.6382 162.214C49.7255 162.214 48.9856 162.954 48.9856 163.867C48.9856 164.78 49.7255 165.519 50.6382 165.519Z" fill="#F55F44"/>
<path opacity="0.5" d="M161.378 106.39C162.291 106.39 163.031 105.65 163.031 104.737C163.031 103.825 162.291 103.085 161.378 103.085C160.465 103.085 159.725 103.825 159.725 104.737C159.725 105.65 160.465 106.39 161.378 106.39Z" fill="#F55F44"/>
<path opacity="0.5" d="M19.1245 22.7985C20.0372 22.7985 20.7771 22.0586 20.7771 21.1459C20.7771 20.2332 20.0372 19.4933 19.1245 19.4933C18.2118 19.4933 17.4719 20.2332 17.4719 21.1459C17.4719 22.0586 18.2118 22.7985 19.1245 22.7985Z" fill="#4D8AF0"/>
<path opacity="0.5" d="M1.6526 67.8797C2.56531 67.8797 3.30521 67.1398 3.30521 66.2271C3.30521 65.3144 2.56531 64.5745 1.6526 64.5745C0.739896 64.5745 0 65.3144 0 66.2271C0 67.1398 0.739896 67.8797 1.6526 67.8797Z" fill="#47E6B1"/>
</g>
<defs>
<linearGradient id="paint0_linear" x1="89.3903" y1="147.057" x2="62.5288" y2="21.8661" gradientUnits="userSpaceOnUse">
<stop stop-color="#808080" stop-opacity="0.25"/>
<stop offset="0.54" stop-color="#808080" stop-opacity="0.12"/>
<stop offset="1" stop-color="#808080" stop-opacity="0.1"/>
</linearGradient>
<linearGradient id="paint1_linear" x1="24099.1" y1="-3138.17" x2="23986.6" y2="-3662.9" gradientUnits="userSpaceOnUse">
<stop stop-color="#808080" stop-opacity="0.25"/>
<stop offset="0.54" stop-color="#808080" stop-opacity="0.12"/>
<stop offset="1" stop-color="#808080" stop-opacity="0.1"/>
</linearGradient>
<linearGradient id="paint2_linear" x1="7037" y1="357.947" x2="6879.94" y2="-374.09" gradientUnits="userSpaceOnUse">
<stop stop-color="#808080" stop-opacity="0.25"/>
<stop offset="0.54" stop-color="#808080" stop-opacity="0.12"/>
<stop offset="1" stop-color="#808080" stop-opacity="0.1"/>
</linearGradient>
<linearGradient id="paint3_linear" x1="44206.7" y1="91004.6" x2="44206.7" y2="16304.4" gradientUnits="userSpaceOnUse">
<stop stop-color="#808080" stop-opacity="0.25"/>
<stop offset="0.54" stop-color="#808080" stop-opacity="0.12"/>
<stop offset="1" stop-color="#808080" stop-opacity="0.1"/>
</linearGradient>
<linearGradient id="paint4_linear" x1="21450.4" y1="1717.86" x2="21450.4" y2="1181.19" gradientUnits="userSpaceOnUse">
<stop stop-color="#808080" stop-opacity="0.25"/>
<stop offset="0.54" stop-color="#808080" stop-opacity="0.12"/>
<stop offset="1" stop-color="#808080" stop-opacity="0.1"/>
</linearGradient>
<linearGradient id="paint5_linear" x1="8452.37" y1="2275.16" x2="8452.37" y2="1525.62" gradientUnits="userSpaceOnUse">
<stop stop-color="#808080" stop-opacity="0.25"/>
<stop offset="0.54" stop-color="#808080" stop-opacity="0.12"/>
<stop offset="1" stop-color="#808080" stop-opacity="0.1"/>
</linearGradient>
<clipPath id="clip0">
<rect width="180" height="171.364" fill="white"/>
</clipPath>
</defs>
</svg>
